# xmcd CD database file
#
# Track frame offsets:
#	150
#	18200
#	29927
#	58542
#	74347
#	92597
#	107217
#	123860
#	145657
#	159480
#	177575
#	191195
#	209497
#	226252
#	243677
#	259530
#
# Disc length: 3657 seconds
#
# Revision: 2
# Processed by: cddbd v1.5.1PL0 Copyright (c) Steve Scherf et al.
# Submitted via: CDex 1.51
#
DISCID=e70e4710
DTITLE=Sarah Vaughan - Quiet Now - Dreamsville
DYEAR=2000
DGENRE=Vocal
TTITLE0=Someone to watch over me
TTITLE1=Polka dots and moonbeams
TTITLE2=April in Paris
TTITLE3=Bewitched
TTITLE4=I've got a crush on you
TTITLE5=Body and soul
TTITLE6=It never entered my mind
TTITLE7=Embraceable you
TTITLE8=September song
TTITLE9=Smoke gets in your eyes
TTITLE10=Misty
TTITLE11=Lush life
TTITLE12=I'm in the mood for love
TTITLE13=Dreamsville
TTITLE14=If I loved you
TTITLE15=Autumn in New York
EXTD=YEAR: 2000
EXTT0=
EXTT1=
EXTT2=
EXTT3=
EXTT4=
EXTT5=
EXTT6=
EXTT7=
EXTT8=
EXTT9=
EXTT10=
EXTT11=
EXTT12=
EXTT13=
EXTT14=
EXTT15=
PLAYORDER=
